<svg xmlns="http://www.w3.org/2000/svg" width="88" height="49" fill="none">
  <path fill="#402d00" fill-rule="evenodd" d="M58.91 29.6c.1.1.22.19.33.28 1.88 1.54 4.38 2.31 7.53 2.31 2.76 0 5.07-.62 6.92-1.87l-1.89-4.08c-1.1.8-2.62 1.2-4.55 1.2a5.03 5.03 0 0 1-3.42-1.12c-.83-.75-1.25-1.44-1.25-2.08V24h13.77c.27-1.14.4-2.27.4-3.36 0-2.72-.86-4.85-2.58-6.4a9.07 9.07 0 0 0-6.36-2.31c-2.61 0-4.88.72-6.8 2.17l.86.78-4.23 5.4c.45.34.86.74 1.23 1.18a5.62 5.62 0 0 1 1.35 3.77 7.5 7.5 0 0 1-1.31 4.36ZM71.24 20h-8.05c.19-.83.68-1.59 1.49-2.28a4.22 4.22 0 0 1 2.85-1.03c1.24 0 2.16.32 2.78.96.65.64.97 1.33.97 2.07 0 .17-.02.26-.04.28Z" clip-rule="evenodd"/>
  <path fill="#402d00" d="M15.74 31.67H0L5.92 5h14c2.39 0 4.24.64 5.55 1.92a6.19 6.19 0 0 1 1.98 4.6 6.7 6.7 0 0 1-1.85 4.63 6.22 6.22 0 0 1-4.23 2.24c1.2.32 2.15.99 2.82 2 .67 1.01 1 2.12 1 3.32 0 .96-.17 1.89-.52 2.8a7.44 7.44 0 0 1-4.55 4.44 12.2 12.2 0 0 1-4.38.72Zm1.49-16.43c1 0 1.7-.24 2.13-.73.45-.5.68-1.1.68-1.8 0-.56-.2-1-.6-1.36a2.02 2.02 0 0 0-1.5-.56H11.6l-1 4.44h6.64Zm-2.1 10.63a3.3 3.3 0 0 0 2.3-.76 2.6 2.6 0 0 0 .84-1.96c0-.62-.2-1.11-.6-1.48-.4-.4-.94-.6-1.61-.6H9.29l-1.08 4.8h6.92Z"/>
  <path fill="#402d00" fill-rule="evenodd" d="m24.41 29.78.3.34c1.31 1.39 3.09 2.08 5.31 2.08 2.12 0 3.97-.9 5.56-2.72l-.48 2.24h6.15l4.31-19.3H39.4l-.52 2.27c-1.29-1.84-3.26-2.76-5.92-2.76-1.52 0-2.9.33-4.16.98-.26 1.58-.97 3-2.12 4.27a8.76 8.76 0 0 1-1.92 1.64 7.33 7.33 0 0 1 1.9 4.94 9.1 9.1 0 0 1-2.25 6.02Zm6.1-10.77a4.47 4.47 0 0 1 3.53-1.64c1.67 0 2.96.59 3.87 1.76l-1.33 5.84a4.66 4.66 0 0 1-3.67 1.8 3.74 3.74 0 0 1-2.7-1.04 3.76 3.76 0 0 1-1.08-2.8 5.87 5.87 0 0 1 1.37-3.92Zm13.69 6.26c.63.52 1.43 1.01 2.4 1.5 1.35.63 2.65.95 3.9.95.62 0 1.12-.13 1.5-.4.37-.26.56-.6.56-1 0-.53-.5-1-1.53-1.4-1-.4-2.09-.74-3.3-1.04-1.04-.27-2-.75-2.9-1.44l2.16-9.7c1.2-.54 2.61-.8 4.24-.8 1.64 0 3.23.27 4.75.83 1.53.53 2.83 1.3 3.9 2.28l-2.97 3.8a7.4 7.4 0 0 0-2.46-1.64 7.51 7.51 0 0 0-3.22-.76c-.67 0-1.2.13-1.61.4-.38.26-.57.59-.57.96s.34.7 1.01 1c.67.26 1.48.53 2.42.8.96.26 1.91.6 2.85 1 .94.4 1.75 1 2.42 1.8.67.77 1 1.71 1 2.84 0 2-.8 3.66-2.41 5-1.58 1.3-3.72 1.95-6.4 1.95a15.61 15.61 0 0 1-6.93-1.62l1.18-5.3Z" clip-rule="evenodd"/>
  <path fill="#402d00" d="M24.1 44.23c.14.2.35.38.63.53.28.13.56.2.84.2.5 0 .9-.17 1.21-.51.31-.36.47-.82.47-1.4 0-.56-.16-1.03-.47-1.38a1.5 1.5 0 0 0-1.2-.53c-.29 0-.57.07-.85.22-.28.14-.5.32-.64.54v2.33Zm0 2.1h-1.74v-9.06h1.73v3.34c.52-.67 1.2-1 2.03-1 .85 0 1.55.3 2.1.93.54.63.8 1.47.8 2.52 0 1.07-.26 1.91-.8 2.53-.55.6-1.25.9-2.1.9-.82 0-1.5-.33-2.03-1v.85Zm6.14 2.57.26-1.55c.16.08.34.11.54.11.46 0 .77-.16.91-.47l.25-.56-2.67-6.66h1.85l1.71 4.57 1.72-4.57h1.86l-3.09 7.64c-.22.58-.54.98-.95 1.2a3.54 3.54 0 0 1-2.4.29Zm20.84-2.56h-1.74v-4.15c0-.7-.33-1.05-.98-1.05-.28 0-.55.08-.79.23-.24.16-.43.33-.57.53v4.44h-1.74v-4.15c0-.7-.33-1.05-.98-1.05-.27 0-.53.08-.78.23a2 2 0 0 0-.58.55v4.42h-1.73v-6.57h1.73v.85c.16-.23.45-.46.86-.68.4-.22.83-.34 1.29-.34.95 0 1.56.4 1.82 1.2.2-.33.52-.6.92-.84.42-.24.87-.36 1.34-.36.61 0 1.09.17 1.43.5.33.33.5.83.5 1.49v4.75Zm7.4-.84a3.3 3.3 0 0 1-2.53 1c-1.05 0-1.9-.33-2.53-1a3.47 3.47 0 0 1-.93-2.46c0-.97.3-1.78.93-2.44.64-.66 1.48-1 2.53-1a3.34 3.34 0 0 1 3.49 3.44c0 .97-.32 1.8-.96 2.47Zm-3.75-1.08c.3.36.7.54 1.22.54s.93-.18 1.23-.54c.3-.37.46-.83.46-1.38a2 2 0 0 0-.46-1.34c-.3-.37-.7-.56-1.23-.56-.51 0-.92.19-1.22.56-.3.36-.45.81-.45 1.34 0 .55.15 1 .45 1.38Zm12.28 1.92H65.3v-3.98c0-.81-.4-1.22-1.21-1.22-.63 0-1.13.26-1.5.78v4.42h-1.73v-6.57h1.73v.85a2.85 2.85 0 0 1 2.3-1.02c.7 0 1.24.19 1.59.56.36.37.54.89.54 1.54v4.64Zm7.43-.84c-.64.67-1.48 1-2.53 1-1.05 0-1.9-.33-2.53-1a3.48 3.48 0 0 1-.94-2.46c0-.97.32-1.78.94-2.44.64-.66 1.48-1 2.53-1a3.34 3.34 0 0 1 3.48 3.44c0 .97-.32 1.8-.95 2.47Zm-3.75-1.08c.3.36.7.54 1.22.54s.92-.18 1.22-.54c.31-.37.47-.83.47-1.38a2 2 0 0 0-.47-1.34c-.3-.37-.7-.56-1.22-.56s-.92.19-1.22.56c-.3.36-.45.81-.45 1.34 0 .55.15 1 .45 1.38Z" opacity=".5"/>
  <rect width="28" height="12.5" x="58.51" y="2.37" fill="#724AEE" rx="6.25" transform="rotate(-3 58.5 2.37)"/>
  <path fill="#fff" fill-opacity=".8" d="m64.57 11.05-.32-5.8 1.02-.07.12 2.18h.05c.04-.11.11-.23.2-.36a1.23 1.23 0 0 1 1-.49 1.66 1.66 0 0 1 1.61.93c.18.32.29.73.31 1.21.03.48-.03.89-.17 1.23A1.65 1.65 0 0 1 66.9 11a1.35 1.35 0 0 1-1.04-.37 1.8 1.8 0 0 1-.25-.33h-.06l.04.7-1.01.05Zm.89-2.23c.01.28.06.52.16.73.09.2.21.37.37.48.16.1.35.15.57.14a.9.9 0 0 0 .56-.21c.14-.13.25-.3.32-.52a2.18 2.18 0 0 0-.08-1.45c-.09-.2-.21-.37-.37-.48a.9.9 0 0 0-.59-.14.9.9 0 0 0-.55.2c-.14.12-.25.3-.32.5a2.2 2.2 0 0 0-.07.75Zm6.03 1.93c-.44.03-.82-.04-1.15-.2a1.85 1.85 0 0 1-.77-.74 2.6 2.6 0 0 1-.32-1.18 2.6 2.6 0 0 1 .19-1.2 1.93 1.93 0 0 1 1.75-1.17c.26-.02.52.01.76.09.25.07.47.19.66.36.2.17.35.39.48.66.12.27.19.6.2.98l.03.31-3.57.2-.04-.7 2.58-.14a1.1 1.1 0 0 0-.15-.51.93.93 0 0 0-.37-.35.98.98 0 0 0-.53-.1 1 1 0 0 0-.54.18 1.09 1.09 0 0 0-.45.96l.03.6c.01.26.07.47.17.65.1.17.24.3.42.4.17.08.37.11.59.1.15 0 .28-.03.4-.08a.9.9 0 0 0 .3-.21.8.8 0 0 0 .19-.32l.96.05a1.5 1.5 0 0 1-.3.69c-.16.2-.37.35-.63.47-.25.12-.55.18-.9.2Zm4.73-4.72.05.8-2.5.14-.05-.8 2.5-.14Zm-1.94-.93 1.03-.06.22 4.09c.01.14.04.24.08.31.05.07.11.12.18.14.07.02.15.03.24.03a1 1 0 0 0 .3-.06l.21.8a2.3 2.3 0 0 1-.6.13c-.25.02-.49 0-.7-.08a1.1 1.1 0 0 1-.51-.37 1.2 1.2 0 0 1-.21-.67l-.24-4.26Zm4.3 5.26c-.27.02-.52-.02-.75-.1-.23-.1-.4-.23-.55-.42a1.3 1.3 0 0 1-.23-.7c-.01-.25.02-.46.1-.62.09-.17.2-.3.36-.41.15-.1.32-.19.51-.25.2-.06.4-.1.61-.14l.62-.1a.92.92 0 0 0 .34-.13c.07-.05.1-.13.1-.22v-.02a.64.64 0 0 0-.22-.49.8.8 0 0 0-.56-.14.98.98 0 0 0-.59.2.82.82 0 0 0-.27.4l-.97-.08A1.53 1.53 0 0 1 78.04 6a2.72 2.72 0 0 1 1.46-.14c.2.04.4.1.58.21.18.1.32.25.44.44.12.18.18.42.2.71l.16 2.92-.99.05-.03-.6h-.04a1.26 1.26 0 0 1-.65.64 1.7 1.7 0 0 1-.59.12Zm.23-.77c.2 0 .38-.06.53-.15a.9.9 0 0 0 .33-.35c.07-.14.1-.29.1-.45l-.03-.51a.48.48 0 0 1-.16.08l-.25.07a7.8 7.8 0 0 1-.52.11 1.8 1.8 0 0 0-.4.13.68.68 0 0 0-.28.21c-.07.09-.1.2-.09.33a.5.5 0 0 0 .23.42.9.9 0 0 0 .54.11Z"/>
</svg>
